# xmcd
#
# Track frame offsets: 
#        187
#        13107
#        33200
#        47012
#        62365
#        77730
#        91110
#        111405
#        125832
#        145135
#
# Disc length: 2219 seconds
#
# Revision: 3
# Processed by: cddbd v1.5.2PL0 Copyright (c) Steve Scherf et al.
# Submitted via: ExactAudioCopy v1.0b2
#
DISCID=7d08a90a
DTITLE=Various Artist - Country Classics Vol 7 (1986-1987)
DYEAR=1988
DGENRE=Country
TTITLE0=George Strait - It Ain't Cool To Be Crazy About You
TTITLE1=Reba McEntire - Let The Music Lift You Up
TTITLE2=John Schneider - At The Sound Of The Tone
TTITLE3=Lee Greenwood - Mornin' Ride
TTITLE4=Steve Earle - Goodbye's All We've Got Left
TTITLE5=Waylon Jennings - What You'll Do When I'm Gone
TTITLE6=Orleans - Grown Up Children
TTITLE7=Barbara Mandrell - No One Mends A Broken Heart Like You
TTITLE8=Steve Wariner - Starting Over Again
TTITLE9=Ray Stevens - People's Court
EXTD=more info - MillenniumMusicProjectFormat - SYNTAX=SongTitle{Subtit
EXTD=le}[miscInfo](Lyricist;Composer;Date,Artist,Location,State,Countr
EXTD=y)
EXTT0=
EXTT1=
EXTT2=
EXTT3=
EXTT4=
EXTT5=
EXTT6=
EXTT7=
EXTT8=
EXTT9=
PLAYORDER=
